<?xml version="1.0" standalone="no"?>
<!DOCTYPE svg PUBLIC "-//W3C//DTD SVG 20010904//EN"
 "http://www.w3.org/TR/2001/REC-SVG-20010904/DTD/svg10.dtd">
<svg version="1.0" xmlns="http://www.w3.org/2000/svg"
 width="500.000000pt" height="500.000000pt" viewBox="0 0 500.000000 500.000000"
 preserveAspectRatio="xMidYMid meet">

<g transform="translate(0.000000,500.000000) scale(0.100000,-0.100000)"
fill="#000000" stroke="none">
<path d="M2408 3480 c-44 -24 -95 -83 -103 -122 l-7 -28 -155 0 c-93 0 -172
-5 -197 -12 -50 -15 -120 -85 -156 -154 -75 -145 -275 -483 -300 -506 -30 -28
-31 -28 -174 -28 l-144 0 -11 32 c-7 18 -28 50 -49 71 -81 83 -209 82 -286 -3
-46 -51 -56 -77 -56 -142 0 -97 59 -174 152 -199 90 -24 189 23 229 110 l24
50 140 1 141 0 36 -37 c20 -21 76 -107 124 -191 49 -84 94 -160 99 -170 181
-305 163 -292 414 -292 l169 0 12 -35 c59 -178 317 -178 381 0 l13 35 169 0
c234 0 235 0 364 220 47 80 124 209 170 287 46 79 97 151 112 163 26 18 44 20
170 20 l141 0 0 40 0 40 -148 0 -148 0 -31 33 c-27 27 -125 190 -246 407 -85
154 -115 195 -162 225 -48 30 -49 30 -221 33 l-172 3 -6 29 c-7 38 -70 107
-114 126 -48 20 -129 17 -174 -6z m155 -82 c28 -14 57 -69 57 -108 0 -47 -30
-93 -73 -114 -109 -51 -213 83 -144 185 35 52 101 67 160 37z m-254 -191 c33
-100 173 -155 276 -108 46 20 102 79 111 116 l6 25 155 0 c119 0 163 -4 187
-15 32 -15 68 -69 153 -225 17 -30 71 -126 121 -212 l91 -158 -354 0 -353 0
-11 32 c-19 53 -79 107 -138 124 -48 14 -58 14 -107 0 -58 -17 -119 -73 -138
-127 l-10 -29 -354 0 -355 0 15 28 c15 29 250 441 289 508 39 65 68 74 249 74
l156 0 11 -33z m-1255 -536 c26 -27 31 -39 31 -81 0 -42 -5 -54 -30 -80 -59
-58 -156 -46 -189 25 -20 42 -20 68 -1 106 39 74 130 88 189 30z m1497 24 c37
-19 69 -70 69 -108 0 -59 -60 -117 -120 -117 -61 0 -120 60 -120 122 0 35 37
87 73 103 42 18 62 18 98 0z m-234 -194 c73 -157 291 -158 365 0 l23 48 353 1
c193 0 352 -2 352 -4 0 -4 -53 -95 -280 -476 -75 -128 -80 -130 -277 -130
l-151 0 -10 28 c-14 41 -71 103 -109 118 -39 17 -121 18 -160 3 -39 -14 -87
-64 -108 -110 l-18 -39 -157 0 c-195 0 -198 1 -287 149 -35 57 -63 105 -63
107 0 2 -43 75 -95 164 -53 88 -98 167 -101 175 -5 13 38 15 347 15 l354 0 22
-49z m228 -495 c19 -8 44 -30 55 -48 57 -94 -27 -204 -134 -174 -103 29 -112
178 -13 221 41 18 50 18 92 1z"/>
<path d="M4166 2465 c-11 -8 -15 -15 -9 -15 6 0 16 7 23 15 16 19 11 19 -14 0z"/>
<path d="M4060 2461 c0 -6 4 -13 10 -16 6 -3 7 1 4 9 -7 18 -14 21 -14 7z"/>
</g>
</svg>
